<svg width="74" height="15" viewBox="0 0 74 15" fill="none" xmlns="http://www.w3.org/2000/svg">
<path d="M62.893 14.7V0.299999H68.583C68.723 0.299999 68.8896 0.306666 69.083 0.319999C69.2763 0.326666 69.463 0.346666 69.643 0.379999C70.423 0.499999 71.0763 0.766666 71.603 1.18C72.1363 1.59333 72.5363 2.11667 72.803 2.75C73.0696 3.37667 73.203 4.07333 73.203 4.84C73.203 5.95333 72.913 6.92 72.333 7.74C71.753 8.55333 70.903 9.06333 69.783 9.27L69.103 9.38H64.673V14.7H62.893ZM71.463 14.7L68.623 8.84L70.383 8.3L73.503 14.7H71.463ZM64.673 7.69H68.523C68.6496 7.69 68.793 7.68333 68.953 7.67C69.1196 7.65667 69.2763 7.63333 69.423 7.6C69.883 7.49333 70.2563 7.3 70.543 7.02C70.8363 6.73333 71.0496 6.4 71.183 6.02C71.3163 5.63333 71.383 5.24 71.383 4.84C71.383 4.44 71.3163 4.05 71.183 3.67C71.0496 3.28333 70.8363 2.94667 70.543 2.66C70.2563 2.37333 69.883 2.18 69.423 2.08C69.2763 2.04 69.1196 2.01667 68.953 2.01C68.793 1.99667 68.6496 1.99 68.523 1.99H64.673V7.69Z" fill="#366D87"/>
<path d="M50.9645 15C49.5312 15 48.3145 14.6833 47.3145 14.05C46.3145 13.4167 45.5512 12.5367 45.0245 11.41C44.5045 10.2833 44.2445 8.98 44.2445 7.5C44.2445 6.02 44.5045 4.71667 45.0245 3.59C45.5512 2.46333 46.3145 1.58333 47.3145 0.949999C48.3145 0.316667 49.5312 0 50.9645 0C52.4045 0 53.6245 0.316667 54.6245 0.949999C55.6245 1.58333 56.3845 2.46333 56.9045 3.59C57.4245 4.71667 57.6845 6.02 57.6845 7.5C57.6845 8.98 57.4245 10.2833 56.9045 11.41C56.3845 12.5367 55.6245 13.4167 54.6245 14.05C53.6245 14.6833 52.4045 15 50.9645 15ZM50.9645 13.3C52.0379 13.3067 52.9312 13.0667 53.6445 12.58C54.3645 12.0867 54.9012 11.4033 55.2545 10.53C55.6145 9.65667 55.7945 8.64667 55.7945 7.5C55.7945 6.34667 55.6145 5.33667 55.2545 4.47C54.9012 3.60333 54.3645 2.92667 53.6445 2.44C52.9312 1.95333 52.0379 1.70667 50.9645 1.7C49.8912 1.69333 48.9979 1.93333 48.2845 2.42C47.5779 2.90667 47.0445 3.58667 46.6845 4.46C46.3245 5.33333 46.1412 6.34667 46.1345 7.5C46.1279 8.64667 46.3045 9.65333 46.6645 10.52C47.0245 11.3867 47.5612 12.0667 48.2745 12.56C48.9945 13.0467 49.8912 13.2933 50.9645 13.3Z" fill="#366D87"/>
<path d="M29.4617 14.7V0.299999H35.0717C35.9317 0.299999 36.6651 0.476666 37.2717 0.829999C37.885 1.18333 38.3517 1.65 38.6717 2.23C38.9984 2.80333 39.1617 3.42333 39.1617 4.09C39.1617 4.87 38.9617 5.55333 38.5617 6.14C38.1617 6.72667 37.6217 7.13 36.9417 7.35L36.9217 6.86C37.8484 7.10667 38.5684 7.56 39.0817 8.22C39.595 8.88 39.8517 9.66667 39.8517 10.58C39.8517 11.42 39.6784 12.1467 39.3317 12.76C38.9917 13.3733 38.4984 13.85 37.8517 14.19C37.2117 14.53 36.4517 14.7 35.5717 14.7H29.4617ZM31.2617 13H35.2317C35.765 13 36.2417 12.9033 36.6617 12.71C37.0817 12.51 37.4117 12.23 37.6517 11.87C37.8984 11.51 38.0217 11.0767 38.0217 10.57C38.0217 10.0833 37.9117 9.64667 37.6917 9.26C37.4784 8.87333 37.175 8.56667 36.7817 8.34C36.395 8.10667 35.9451 7.99 35.4317 7.99H31.2617V13ZM31.2617 6.31H35.0517C35.4784 6.31 35.8617 6.22 36.2017 6.04C36.5484 5.85333 36.8217 5.59333 37.0217 5.26C37.2284 4.92667 37.3317 4.53667 37.3317 4.09C37.3317 3.47 37.1217 2.96333 36.7017 2.57C36.2817 2.17667 35.7317 1.98 35.0517 1.98H31.2617V6.31Z" fill="#366D87"/>
<path d="M12.3516 14.7L17.1716 0.299999H19.6516L24.4716 14.7H22.6216L18.1116 1.34H18.6716L14.2016 14.7H12.3516ZM14.6716 11.33V9.66H22.1516V11.33H14.6716Z" fill="#366D87"/>
<path d="M0 14.7V0.299999H1.78V13.01H8.46V14.7H0Z" fill="#366D87"/>
</svg>
