<svg width="55" height="50" viewBox="0 0 55 50" fill="none" xmlns="http://www.w3.org/2000/svg">
<path d="M0 0.113089C5.24441 0.113089 9.49583 4.36452 9.49583 9.60893L9.49583 50.1266C4.25143 50.1266 -2.00578e-06 45.8751 -1.77591e-06 40.6307L0 0.113089Z" fill="url(#paint0_linear_39_2094)"/>
<path d="M9.49583 42.1363H21.6842C26.0971 42.1363 29.6745 45.7136 29.6745 50.1266H9.49583V42.1363Z" fill="url(#paint1_linear_39_2094)"/>
<ellipse cx="45.0808" cy="9.83993" rx="9.86677" ry="9.83993" fill="url(#paint2_linear_39_2094)"/>
<ellipse cx="45.1332" cy="25.1069" rx="9.86677" ry="9.83993" fill="url(#paint3_linear_39_2094)"/>
<path d="M33.46 50.1266C39.1142 50.1266 43.6977 45.543 43.6977 39.8889L43.6977 0.113083C38.0436 0.113083 33.46 4.69666 33.46 10.3508L33.46 50.1266Z" fill="url(#paint4_linear_39_2094)"/>
<defs>
<linearGradient id="paint0_linear_39_2094" x1="4.74792" y1="0.113089" x2="4.74791" y2="50.1266" gradientUnits="userSpaceOnUse">
<stop stop-color="#94DDFF"/>
<stop offset="1" stop-color="#1791CA"/>
</linearGradient>
<linearGradient id="paint1_linear_39_2094" x1="29.6745" y1="46.1314" x2="9.49583" y2="46.1314" gradientUnits="userSpaceOnUse">
<stop stop-color="#3CB5ED"/>
<stop offset="1" stop-color="#1C82B1"/>
</linearGradient>
<linearGradient id="paint2_linear_39_2094" x1="54.9475" y1="9.83993" x2="35.214" y2="9.83993" gradientUnits="userSpaceOnUse">
<stop stop-color="#30BDFE"/>
<stop offset="1" stop-color="#1D7198"/>
</linearGradient>
<linearGradient id="paint3_linear_39_2094" x1="55" y1="25.1069" x2="35.2665" y2="25.1069" gradientUnits="userSpaceOnUse">
<stop stop-color="#30BDFE"/>
<stop offset="1" stop-color="#1D7198"/>
</linearGradient>
<linearGradient id="paint4_linear_39_2094" x1="38.5789" y1="50.1266" x2="38.5789" y2="0.113083" gradientUnits="userSpaceOnUse">
<stop stop-color="#C7EDFF"/>
<stop offset="0.432692" stop-color="#30BDFE"/>
</linearGradient>
</defs>
</svg>
